<svg width="15" height="14" viewBox="0 0 15 14" fill="none" xmlns="http://www.w3.org/2000/svg">
<path d="M7.80835 0.959561C7.63694 0.612238 7.14167 0.612239 6.97025 0.959562L5.24485 4.4556C5.17679 4.59352 5.04521 4.68912 4.893 4.71124L1.03489 5.27185C0.651598 5.32755 0.498551 5.79858 0.775905 6.06893L3.56766 8.79022C3.6778 8.89758 3.72806 9.05226 3.70205 9.20385L3.04301 13.0464C2.97754 13.4281 3.37822 13.7192 3.72105 13.539L7.17185 11.7248C7.30798 11.6532 7.47062 11.6532 7.60676 11.7248L11.0576 13.539C11.4004 13.7192 11.8011 13.4281 11.7356 13.0464L11.0765 9.20385C11.0505 9.05226 11.1008 8.89758 11.2109 8.79022L14.0027 6.06893C14.2801 5.79858 14.127 5.32755 13.7437 5.27185L9.8856 4.71124C9.7334 4.68912 9.60182 4.59352 9.53375 4.4556L7.80835 0.959561Z" fill="#FFAA00"/>
</svg>
